# File produced by Open Asset Import Library (http://www.assimp.sf.net)
# (assimp v5.0.1937526254)

# 66 vertex positions
v  0.0440908149 0.00600000005 -0.00600000005
v  0.0419994295 0.0107713137 -0.00600000005
v  0.0440908149 0.00600000005 0.00600000005
v  0.0419994295 0.0107713137 0.00600000005
v  0.0387549549 0.0152469063 -0.00600000005
v  0.0387549549 0.0152469063 0.00600000005
v  0.0344464667 0.0193038955 -0.00600000005
v  0.0344464667 0.0193038955 0.00600000005
v  0.0291922558 0.0228309017 -0.00600000005
v  0.0291922558 0.0228309017 0.00600000005
v  0.0209680982 0.0265442096 -0.00600000005
v  0.0209680982 0.0265442096 0.00600000005
v  0.0105168177 0.0291692112 -0.00600000005
v  0.0105168177 0.0291692112 0.00600000005
v  -0.00167869206 0.0299791209 -0.00600000005
v  -0.00167869206 0.0299791209 0.00600000005
v  -0.0126541508 0.0287894476 -0.00600000005
v  -0.0126541508 0.0287894476 0.00600000005
v  -0.022751458 0.0258832518 0.00600000005
v  -0.022751458 0.0258832518 -0.00600000005
v  -0.0312788188 0.0215678364 -0.00600000005
v  -0.0312788188 0.0215678364 0.00600000005
v  -0.0378101058 0.01626716 -0.00600000005
v  -0.0378101058 0.01626716 0.00600000005
v  -0.042005688 0.01076046 -0.00600000005
v  -0.042005688 0.01076046 0.00600000005
v  -0.0441048034 0.00595414825 -0.00600000005
v  -0.0441048034 0.00595414825 0.00600000005
v  -0.0449542105 0.00135301205 -0.00600000005
v  -0.0449542105 0.00135301205 0.00600000005
v  -0.0447301641 -0.00328043406 -0.00600000005
v  -0.0447301641 -0.00328043406 0.00600000005
v  -0.043437995 -0.00783555023 -0.00600000005
v  -0.043437995 -0.00783555023 0.00600000005
v  -0.0411085747 -0.0122035565 -0.00600000005
v  -0.0411085747 -0.0122035565 0.00600000005
v  -0.0377975181 -0.0162801612 -0.00600000005
v  -0.0377975181 -0.0162801612 0.00600000005
v  -0.0335838906 -0.0199680012 -0.00600000005
v  -0.0335838906 -0.0199680012 0.00600000005
v  -0.0285683107 -0.0231790282 0.00600000005
v  -0.0285683107 -0.0231790282 -0.00600000005
v  -0.0208428055 -0.0265880283 -0.00600000005
v  -0.0208428055 -0.0265880283 0.00600000005
v  -0.0111135002 -0.0290707219 -0.00600000005
v  -0.0111135002 -0.0290707219 0.00600000005
v  0.00105304806 -0.0299917869 -0.00600000005
v  0.00105304806 -0.0299917869 0.00600000005
v  0.012053526 -0.0289037712 -0.00600000005
v  0.012053526 -0.0289037712 0.00600000005
v  0.0222205631 -0.0260874312 -0.00600000005
v  0.0222205631 -0.0260874312 0.00600000005
v  0.030850159 -0.0218405109 -0.00600000005
v  0.030850159 -0.0218405109 0.00600000005
v  0.0374997556 -0.01658337 -0.00600000005
v  0.0374997556 -0.01658337 0.00600000005
v  0.0415603146 -0.0115034403 -0.00600000005
v  0.0415603146 -0.0115034403 0.00600000005
v  0.0430240147 -0.00879227463 0.00600000005
v  0.0430240147 -0.00879227463 -0.00600000005
v  0.0440908149 -0.00600000005 -0.00600000005
v  0.0440908149 -0.00600000005 0.00600000005
v  0.224090815 -0.00600000005 -0.00600000005
v  0.224090815 -0.00600000005 0.00600000005
v  0.224090815 0.00600000005 -0.00600000005
v  0.224090815 0.00600000005 0.00600000005

# 0 UV coordinates

# 35 vertex normals
vn 0.00549528049 0.00240871799 0
vn 0.00485783396 0.00352157443 0
vn 0.00411323411 0.0043682158 0
vn 0.00334406411 0.00498169195 0
vn 0.00246906606 0.00546843046 0
vn 0.00146159402 0.00581925595 0
vn 0.000397584023 0.00598681206 0
vn -0.000646571978 0.00596506195 0
vn -0.00165953988 0.00576592796 0
vn -0.00270923413 0.00535350619 0
vn -0.00378097803 0.00465877773 0
vn -0.00477258582 0.00363626401 0
vn -0.00549847819 0.00240140408 0
vn -0.00590029778 0.00108924601 0
vn -0.0059929979 -0.000289788033 0
vn -0.00577224651 -0.00163743598 0
vn -0.00529420795 -0.00282336003 0
vn -0.00465734396 -0.00378274196 0
vn -0.00395158818 -0.00451497035 0
vn -0.00323508005 -0.00505314628 -0
vn -0.00242225383 -0.00548932794 0
vn -0.00148351805 -0.0058137062 0
vn -0.000452934008 -0.00598288188 0
vn 0.00059055601 -0.00597086409 0
vn 0.00160172407 -0.00578225404 0
vn 0.00264935405 -0.00538339186 0
vn 0.00372111588 -0.00470673013 0
vn 0.0046867379 -0.00374626205 0
vn 0.00527970027 -0.00285040215 0
vn 0.00560486969 -0.00214136392 0
vn 0 -0.00600000005 0
vn 0.00600000005 0 0
vn 0 0.00600000005 0
vn 0 0 -0.00600000005
vn 0 0 0.00600000005

# Mesh 'mesh' with 128 faces
g mesh
f  1//1 2//1 3//1
f  3//1 2//1 4//1
f  4//2 5//2 6//2
f  2//2 5//2 4//2
f  6//3 7//3 8//3
f  5//3 7//3 6//3
f  8//4 9//4 10//4
f  7//4 9//4 8//4
f  10//5 11//5 12//5
f  9//5 11//5 10//5
f  12//6 13//6 14//6
f  11//6 13//6 12//6
f  14//7 15//7 16//7
f  13//7 15//7 14//7
f  16//8 17//8 18//8
f  18//9 17//9 19//9
f  15//8 17//8 16//8
f  17//9 20//9 19//9
f  20//10 21//10 19//10
f  19//10 21//10 22//10
f  21//11 23//11 22//11
f  22//11 23//11 24//11
f  24//12 25//12 26//12
f  23//12 25//12 24//12
f  26//13 27//13 28//13
f  25//13 27//13 26//13
f  28//14 29//14 30//14
f  27//14 29//14 28//14
f  30//15 31//15 32//15
f  29//15 31//15 30//15
f  32//16 33//16 34//16
f  31//16 33//16 32//16
f  34//17 35//17 36//17
f  33//17 35//17 34//17
f  36//18 37//18 38//18
f  35//18 37//18 36//18
f  38//19 39//19 40//19
f  40//20 39//20 41//20
f  37//19 39//19 38//19
f  39//20 42//20 41//20
f  41//21 43//21 44//21
f  42//21 43//21 41//21
f  44//22 45//22 46//22
f  43//22 45//22 44//22
f  46//23 47//23 48//23
f  45//23 47//23 46//23
f  48//24 49//24 50//24
f  47//24 49//24 48//24
f  50//25 51//25 52//25
f  49//25 51//25 50//25
f  52//26 53//26 54//26
f  51//26 53//26 52//26
f  54//27 55//27 56//27
f  53//27 55//27 54//27
f  56//28 57//28 58//28
f  58//29 57//29 59//29
f  55//28 57//28 56//28
f  57//29 60//29 59//29
f  59//30 61//30 62//30
f  60//30 61//30 59//30
f  61//31 63//31 62//31
f  62//31 63//31 64//31
f  63//32 65//32 64//32
f  64//32 65//32 66//32
f  65//33 1//33 66//33
f  66//33 1//33 3//33
f  29//34 27//34 31//34
f  31//34 27//34 33//34
f  33//34 25//34 35//34
f  27//34 25//34 33//34
f  35//34 23//34 37//34
f  37//34 23//34 39//34
f  25//34 23//34 35//34
f  39//34 21//34 42//34
f  23//34 21//34 39//34
f  42//34 20//34 43//34
f  21//34 20//34 42//34
f  43//34 17//34 45//34
f  20//34 17//34 43//34
f  45//34 15//34 47//34
f  17//34 15//34 45//34
f  47//34 13//34 49//34
f  15//34 13//34 47//34
f  49//34 11//34 51//34
f  13//34 11//34 49//34
f  60//34 1//34 61//34
f  51//34 9//34 53//34
f  11//34 9//34 51//34
f  57//34 2//34 60//34
f  60//34 2//34 1//34
f  53//34 7//34 55//34
f  9//34 7//34 53//34
f  55//34 5//34 57//34
f  7//34 5//34 55//34
f  57//34 5//34 2//34
f  61//34 65//34 63//34
f  1//34 65//34 61//34
f  28//35 30//35 32//35
f  28//35 32//35 34//35
f  26//35 34//35 36//35
f  26//35 28//35 34//35
f  24//35 36//35 38//35
f  24//35 38//35 40//35
f  24//35 26//35 36//35
f  22//35 40//35 41//35
f  22//35 24//35 40//35
f  19//35 41//35 44//35
f  19//35 22//35 41//35
f  18//35 44//35 46//35
f  18//35 19//35 44//35
f  16//35 46//35 48//35
f  16//35 18//35 46//35
f  14//35 48//35 50//35
f  14//35 16//35 48//35
f  12//35 50//35 52//35
f  12//35 14//35 50//35
f  3//35 59//35 62//35
f  10//35 52//35 54//35
f  10//35 12//35 52//35
f  4//35 58//35 59//35
f  4//35 59//35 3//35
f  8//35 54//35 56//35
f  8//35 10//35 54//35
f  6//35 56//35 58//35
f  6//35 8//35 56//35
f  6//35 58//35 4//35
f  66//35 62//35 64//35
f  66//35 3//35 62//35

